# xmcd CD database file
#
# Track frame offsets:
#	150
#	19052
#	35905
#	55532
#	72537
#	88842
#	107565
#	125845
#	150670
#	185470
#	203182
#	233775
#	252110
#	264710
#	290532
#	314670
#
# Disc length: 4399 seconds
#
# Revision: 2
# Processed by: cddbd v1.5.2PL0 Copyright (c) Steve Scherf et al.
# Submitted via: CDex 1.70beta2
#
DISCID=ef112d10
DTITLE=Various Artist - Desaster City Blues
DYEAR=1996
DGENRE=Blues
TTITLE0=MacLeod, Doug - Come To Find
TTITLE1=Lucas, Robert - Blues Man From L. A.
TTITLE2=Evans, Terry - Walking In The Same Tracks
TTITLE3=Red Eye Blues - Just Another Fool
TTITLE4=Nicolaisen, Jaime Troy - Is This What It Takes
TTITLE5=Ball, Tom and Kenny Sultan - Roll Of The Tumblin' Dice
TTITLE6=Smith, Chris Hammer - Born In Chicago
TTITLE7=Hula Monsters - She Don't Mind
TTITLE8=Evans, Terry - Down In Mississippi
TTITLE9=Lucas, Robert - Talk To Me
TTITLE10=Smith, Chris 'Hammer' - You And Me
TTITLE11=Red Eye Blues - Crescent Smile
TTITLE12=Ball, Tom - Wing And A Prayer
TTITLE13=Red Eye Blues - Keep On Tryin
TTITLE14=Bare, Jon - Don't Let The Sun Pass You
TTITLE15=McLeod, Doug - When I Left Missouri
EXTD=
EXTT0=
EXTT1=
EXTT2=
EXTT3=
EXTT4=
EXTT5=
EXTT6=
EXTT7=
EXTT8=
EXTT9=
EXTT10=
EXTT11=
EXTT12=
EXTT13=
EXTT14=
EXTT15=
PLAYORDER=
